G04 #@! TF.GenerationSoftware,KiCad,Pcbnew,8.0.4-8.0.4-0~ubuntu24.04.1*
G04 #@! TF.CreationDate,2024-09-02T11:32:14+02:00*
G04 #@! TF.ProjectId,avos_mini_tapper_coils,61766f73-5f6d-4696-9e69-5f7461707065,rev?*
G04 #@! TF.SameCoordinates,Original*
G04 #@! TF.FileFunction,Legend,Top*
G04 #@! TF.FilePolarity,Positive*
%FSLAX46Y46*%
G04 Gerber Fmt 4.6, Leading zero omitted, Abs format (unit mm)*
G04 Created by KiCad (PCBNEW 8.0.4-8.0.4-0~ubuntu24.04.1) date 2024-09-02 11:32:14*
%MOMM*%
%LPD*%
G01*
G04 APERTURE LIST*
%ADD10C,0.150000*%
%ADD11C,0.120000*%
%ADD12C,5.600000*%
%ADD13R,1.524000X1.524000*%
%ADD14C,1.524000*%
G04 APERTURE END LIST*
D10*
X126416065Y-112247143D02*
X126416065Y-111913810D01*
X126939875Y-111770953D02*
X126939875Y-112247143D01*
X126939875Y-112247143D02*
X125939875Y-112247143D01*
X125939875Y-112247143D02*
X125939875Y-111770953D01*
X126939875Y-111437619D02*
X126273208Y-110913810D01*
X126273208Y-111437619D02*
X126939875Y-110913810D01*
X126273208Y-110532857D02*
X127273208Y-110532857D01*
X126320827Y-110532857D02*
X126273208Y-110437619D01*
X126273208Y-110437619D02*
X126273208Y-110247143D01*
X126273208Y-110247143D02*
X126320827Y-110151905D01*
X126320827Y-110151905D02*
X126368446Y-110104286D01*
X126368446Y-110104286D02*
X126463684Y-110056667D01*
X126463684Y-110056667D02*
X126749398Y-110056667D01*
X126749398Y-110056667D02*
X126844636Y-110104286D01*
X126844636Y-110104286D02*
X126892256Y-110151905D01*
X126892256Y-110151905D02*
X126939875Y-110247143D01*
X126939875Y-110247143D02*
X126939875Y-110437619D01*
X126939875Y-110437619D02*
X126892256Y-110532857D01*
X126892256Y-109247143D02*
X126939875Y-109342381D01*
X126939875Y-109342381D02*
X126939875Y-109532857D01*
X126939875Y-109532857D02*
X126892256Y-109628095D01*
X126892256Y-109628095D02*
X126797017Y-109675714D01*
X126797017Y-109675714D02*
X126416065Y-109675714D01*
X126416065Y-109675714D02*
X126320827Y-109628095D01*
X126320827Y-109628095D02*
X126273208Y-109532857D01*
X126273208Y-109532857D02*
X126273208Y-109342381D01*
X126273208Y-109342381D02*
X126320827Y-109247143D01*
X126320827Y-109247143D02*
X126416065Y-109199524D01*
X126416065Y-109199524D02*
X126511303Y-109199524D01*
X126511303Y-109199524D02*
X126606541Y-109675714D01*
X126939875Y-108770952D02*
X126273208Y-108770952D01*
X126463684Y-108770952D02*
X126368446Y-108723333D01*
X126368446Y-108723333D02*
X126320827Y-108675714D01*
X126320827Y-108675714D02*
X126273208Y-108580476D01*
X126273208Y-108580476D02*
X126273208Y-108485238D01*
X126939875Y-108151904D02*
X126273208Y-108151904D01*
X125939875Y-108151904D02*
X125987494Y-108199523D01*
X125987494Y-108199523D02*
X126035113Y-108151904D01*
X126035113Y-108151904D02*
X125987494Y-108104285D01*
X125987494Y-108104285D02*
X125939875Y-108151904D01*
X125939875Y-108151904D02*
X126035113Y-108151904D01*
X126892256Y-107294762D02*
X126939875Y-107390000D01*
X126939875Y-107390000D02*
X126939875Y-107580476D01*
X126939875Y-107580476D02*
X126892256Y-107675714D01*
X126892256Y-107675714D02*
X126797017Y-107723333D01*
X126797017Y-107723333D02*
X126416065Y-107723333D01*
X126416065Y-107723333D02*
X126320827Y-107675714D01*
X126320827Y-107675714D02*
X126273208Y-107580476D01*
X126273208Y-107580476D02*
X126273208Y-107390000D01*
X126273208Y-107390000D02*
X126320827Y-107294762D01*
X126320827Y-107294762D02*
X126416065Y-107247143D01*
X126416065Y-107247143D02*
X126511303Y-107247143D01*
X126511303Y-107247143D02*
X126606541Y-107723333D01*
X126273208Y-106818571D02*
X126939875Y-106818571D01*
X126368446Y-106818571D02*
X126320827Y-106770952D01*
X126320827Y-106770952D02*
X126273208Y-106675714D01*
X126273208Y-106675714D02*
X126273208Y-106532857D01*
X126273208Y-106532857D02*
X126320827Y-106437619D01*
X126320827Y-106437619D02*
X126416065Y-106390000D01*
X126416065Y-106390000D02*
X126939875Y-106390000D01*
X126892256Y-105485238D02*
X126939875Y-105580476D01*
X126939875Y-105580476D02*
X126939875Y-105770952D01*
X126939875Y-105770952D02*
X126892256Y-105866190D01*
X126892256Y-105866190D02*
X126844636Y-105913809D01*
X126844636Y-105913809D02*
X126749398Y-105961428D01*
X126749398Y-105961428D02*
X126463684Y-105961428D01*
X126463684Y-105961428D02*
X126368446Y-105913809D01*
X126368446Y-105913809D02*
X126320827Y-105866190D01*
X126320827Y-105866190D02*
X126273208Y-105770952D01*
X126273208Y-105770952D02*
X126273208Y-105580476D01*
X126273208Y-105580476D02*
X126320827Y-105485238D01*
X126892256Y-104675714D02*
X126939875Y-104770952D01*
X126939875Y-104770952D02*
X126939875Y-104961428D01*
X126939875Y-104961428D02*
X126892256Y-105056666D01*
X126892256Y-105056666D02*
X126797017Y-105104285D01*
X126797017Y-105104285D02*
X126416065Y-105104285D01*
X126416065Y-105104285D02*
X126320827Y-105056666D01*
X126320827Y-105056666D02*
X126273208Y-104961428D01*
X126273208Y-104961428D02*
X126273208Y-104770952D01*
X126273208Y-104770952D02*
X126320827Y-104675714D01*
X126320827Y-104675714D02*
X126416065Y-104628095D01*
X126416065Y-104628095D02*
X126511303Y-104628095D01*
X126511303Y-104628095D02*
X126606541Y-105104285D01*
X126416065Y-103104285D02*
X126416065Y-103437618D01*
X126939875Y-103437618D02*
X125939875Y-103437618D01*
X125939875Y-103437618D02*
X125939875Y-102961428D01*
X126939875Y-102580475D02*
X126273208Y-102580475D01*
X126463684Y-102580475D02*
X126368446Y-102532856D01*
X126368446Y-102532856D02*
X126320827Y-102485237D01*
X126320827Y-102485237D02*
X126273208Y-102389999D01*
X126273208Y-102389999D02*
X126273208Y-102294761D01*
X126273208Y-101532856D02*
X126939875Y-101532856D01*
X126273208Y-101961427D02*
X126797017Y-101961427D01*
X126797017Y-101961427D02*
X126892256Y-101913808D01*
X126892256Y-101913808D02*
X126939875Y-101818570D01*
X126939875Y-101818570D02*
X126939875Y-101675713D01*
X126939875Y-101675713D02*
X126892256Y-101580475D01*
X126892256Y-101580475D02*
X126844636Y-101532856D01*
X126939875Y-101056665D02*
X126273208Y-101056665D01*
X125939875Y-101056665D02*
X125987494Y-101104284D01*
X125987494Y-101104284D02*
X126035113Y-101056665D01*
X126035113Y-101056665D02*
X125987494Y-101009046D01*
X125987494Y-101009046D02*
X125939875Y-101056665D01*
X125939875Y-101056665D02*
X126035113Y-101056665D01*
X126273208Y-100723332D02*
X126273208Y-100342380D01*
X125939875Y-100580475D02*
X126797017Y-100580475D01*
X126797017Y-100580475D02*
X126892256Y-100532856D01*
X126892256Y-100532856D02*
X126939875Y-100437618D01*
X126939875Y-100437618D02*
X126939875Y-100342380D01*
X127035113Y-98580475D02*
X126987494Y-98675713D01*
X126987494Y-98675713D02*
X126892256Y-98770951D01*
X126892256Y-98770951D02*
X126749398Y-98913808D01*
X126749398Y-98913808D02*
X126701779Y-99009046D01*
X126701779Y-99009046D02*
X126701779Y-99104284D01*
X126939875Y-99056665D02*
X126892256Y-99151903D01*
X126892256Y-99151903D02*
X126797017Y-99247141D01*
X126797017Y-99247141D02*
X126606541Y-99294760D01*
X126606541Y-99294760D02*
X126273208Y-99294760D01*
X126273208Y-99294760D02*
X126082732Y-99247141D01*
X126082732Y-99247141D02*
X125987494Y-99151903D01*
X125987494Y-99151903D02*
X125939875Y-99056665D01*
X125939875Y-99056665D02*
X125939875Y-98866189D01*
X125939875Y-98866189D02*
X125987494Y-98770951D01*
X125987494Y-98770951D02*
X126082732Y-98675713D01*
X126082732Y-98675713D02*
X126273208Y-98628094D01*
X126273208Y-98628094D02*
X126606541Y-98628094D01*
X126606541Y-98628094D02*
X126797017Y-98675713D01*
X126797017Y-98675713D02*
X126892256Y-98770951D01*
X126892256Y-98770951D02*
X126939875Y-98866189D01*
X126939875Y-98866189D02*
X126939875Y-99056665D01*
X126273208Y-97770951D02*
X126939875Y-97770951D01*
X126273208Y-98199522D02*
X126797017Y-98199522D01*
X126797017Y-98199522D02*
X126892256Y-98151903D01*
X126892256Y-98151903D02*
X126939875Y-98056665D01*
X126939875Y-98056665D02*
X126939875Y-97913808D01*
X126939875Y-97913808D02*
X126892256Y-97818570D01*
X126892256Y-97818570D02*
X126844636Y-97770951D01*
X126939875Y-96866189D02*
X126416065Y-96866189D01*
X126416065Y-96866189D02*
X126320827Y-96913808D01*
X126320827Y-96913808D02*
X126273208Y-97009046D01*
X126273208Y-97009046D02*
X126273208Y-97199522D01*
X126273208Y-97199522D02*
X126320827Y-97294760D01*
X126892256Y-96866189D02*
X126939875Y-96961427D01*
X126939875Y-96961427D02*
X126939875Y-97199522D01*
X126939875Y-97199522D02*
X126892256Y-97294760D01*
X126892256Y-97294760D02*
X126797017Y-97342379D01*
X126797017Y-97342379D02*
X126701779Y-97342379D01*
X126701779Y-97342379D02*
X126606541Y-97294760D01*
X126606541Y-97294760D02*
X126558922Y-97199522D01*
X126558922Y-97199522D02*
X126558922Y-96961427D01*
X126558922Y-96961427D02*
X126511303Y-96866189D01*
X126939875Y-96247141D02*
X126892256Y-96342379D01*
X126892256Y-96342379D02*
X126797017Y-96389998D01*
X126797017Y-96389998D02*
X125939875Y-96389998D01*
X126939875Y-95866188D02*
X126273208Y-95866188D01*
X125939875Y-95866188D02*
X125987494Y-95913807D01*
X125987494Y-95913807D02*
X126035113Y-95866188D01*
X126035113Y-95866188D02*
X125987494Y-95818569D01*
X125987494Y-95818569D02*
X125939875Y-95866188D01*
X125939875Y-95866188D02*
X126035113Y-95866188D01*
X126273208Y-95532855D02*
X126273208Y-95151903D01*
X125939875Y-95389998D02*
X126797017Y-95389998D01*
X126797017Y-95389998D02*
X126892256Y-95342379D01*
X126892256Y-95342379D02*
X126939875Y-95247141D01*
X126939875Y-95247141D02*
X126939875Y-95151903D01*
X126273208Y-94913807D02*
X126939875Y-94675712D01*
X126273208Y-94437617D02*
X126939875Y-94675712D01*
X126939875Y-94675712D02*
X127177970Y-94770950D01*
X127177970Y-94770950D02*
X127225589Y-94818569D01*
X127225589Y-94818569D02*
X127273208Y-94913807D01*
X127549819Y-105628094D02*
X128549819Y-105294761D01*
X128549819Y-105294761D02*
X127549819Y-104961428D01*
X128549819Y-104104285D02*
X128549819Y-104675713D01*
X128549819Y-104389999D02*
X127549819Y-104389999D01*
X127549819Y-104389999D02*
X127692676Y-104485237D01*
X127692676Y-104485237D02*
X127787914Y-104580475D01*
X127787914Y-104580475D02*
X127835533Y-104675713D01*
X128454580Y-103675713D02*
X128502200Y-103628094D01*
X128502200Y-103628094D02*
X128549819Y-103675713D01*
X128549819Y-103675713D02*
X128502200Y-103723332D01*
X128502200Y-103723332D02*
X128454580Y-103675713D01*
X128454580Y-103675713D02*
X128549819Y-103675713D01*
X127549819Y-103009047D02*
X127549819Y-102913809D01*
X127549819Y-102913809D02*
X127597438Y-102818571D01*
X127597438Y-102818571D02*
X127645057Y-102770952D01*
X127645057Y-102770952D02*
X127740295Y-102723333D01*
X127740295Y-102723333D02*
X127930771Y-102675714D01*
X127930771Y-102675714D02*
X128168866Y-102675714D01*
X128168866Y-102675714D02*
X128359342Y-102723333D01*
X128359342Y-102723333D02*
X128454580Y-102770952D01*
X128454580Y-102770952D02*
X128502200Y-102818571D01*
X128502200Y-102818571D02*
X128549819Y-102913809D01*
X128549819Y-102913809D02*
X128549819Y-103009047D01*
X128549819Y-103009047D02*
X128502200Y-103104285D01*
X128502200Y-103104285D02*
X128454580Y-103151904D01*
X128454580Y-103151904D02*
X128359342Y-103199523D01*
X128359342Y-103199523D02*
X128168866Y-103247142D01*
X128168866Y-103247142D02*
X127930771Y-103247142D01*
X127930771Y-103247142D02*
X127740295Y-103199523D01*
X127740295Y-103199523D02*
X127645057Y-103151904D01*
X127645057Y-103151904D02*
X127597438Y-103104285D01*
X127597438Y-103104285D02*
X127549819Y-103009047D01*
X128454580Y-102247142D02*
X128502200Y-102199523D01*
X128502200Y-102199523D02*
X128549819Y-102247142D01*
X128549819Y-102247142D02*
X128502200Y-102294761D01*
X128502200Y-102294761D02*
X128454580Y-102247142D01*
X128454580Y-102247142D02*
X128549819Y-102247142D01*
X127549819Y-101580476D02*
X127549819Y-101485238D01*
X127549819Y-101485238D02*
X127597438Y-101390000D01*
X127597438Y-101390000D02*
X127645057Y-101342381D01*
X127645057Y-101342381D02*
X127740295Y-101294762D01*
X127740295Y-101294762D02*
X127930771Y-101247143D01*
X127930771Y-101247143D02*
X128168866Y-101247143D01*
X128168866Y-101247143D02*
X128359342Y-101294762D01*
X128359342Y-101294762D02*
X128454580Y-101342381D01*
X128454580Y-101342381D02*
X128502200Y-101390000D01*
X128502200Y-101390000D02*
X128549819Y-101485238D01*
X128549819Y-101485238D02*
X128549819Y-101580476D01*
X128549819Y-101580476D02*
X128502200Y-101675714D01*
X128502200Y-101675714D02*
X128454580Y-101723333D01*
X128454580Y-101723333D02*
X128359342Y-101770952D01*
X128359342Y-101770952D02*
X128168866Y-101818571D01*
X128168866Y-101818571D02*
X127930771Y-101818571D01*
X127930771Y-101818571D02*
X127740295Y-101770952D01*
X127740295Y-101770952D02*
X127645057Y-101723333D01*
X127645057Y-101723333D02*
X127597438Y-101675714D01*
X127597438Y-101675714D02*
X127549819Y-101580476D01*
D11*
X114355000Y-109290000D02*
X114355000Y-106290000D01*
X114805000Y-108790000D02*
X114805000Y-97740000D01*
X117355000Y-109290000D02*
X114355000Y-109290000D01*
X120655000Y-97740000D02*
X114805000Y-97740000D01*
X120655000Y-100390000D02*
X120655000Y-97740000D01*
X120655000Y-101290000D02*
X120655000Y-100690000D01*
X120655000Y-105040000D02*
X120655000Y-101540000D01*
X120655000Y-105890000D02*
X120655000Y-105290000D01*
X120655000Y-108790000D02*
X114805000Y-108790000D01*
X120655000Y-108790000D02*
X120655000Y-106140000D01*
%LPC*%
D12*
X110880000Y-98690000D03*
D13*
X117355000Y-106290000D03*
D14*
X117355000Y-104290000D03*
X117355000Y-102290000D03*
X117355000Y-100290000D03*
%LPD*%
M02*
