G04 #@! TF.GenerationSoftware,KiCad,Pcbnew,8.0.4-8.0.4-0~ubuntu24.04.1*
G04 #@! TF.CreationDate,2024-09-02T11:32:14+02:00*
G04 #@! TF.ProjectId,avos_mini_tapper_coils,61766f73-5f6d-4696-9e69-5f7461707065,rev?*
G04 #@! TF.SameCoordinates,Original*
G04 #@! TF.FileFunction,AssemblyDrawing,Top*
%FSLAX46Y46*%
G04 Gerber Fmt 4.6, Leading zero omitted, Abs format (unit mm)*
G04 Created by KiCad (PCBNEW 8.0.4-8.0.4-0~ubuntu24.04.1) date 2024-09-02 11:32:14*
%MOMM*%
%LPD*%
G01*
G04 APERTURE LIST*
%ADD10C,0.150000*%
%ADD11C,0.100000*%
G04 APERTURE END LIST*
D10*
X110141905Y-99144819D02*
X110141905Y-98144819D01*
X110141905Y-98144819D02*
X110522857Y-98144819D01*
X110522857Y-98144819D02*
X110618095Y-98192438D01*
X110618095Y-98192438D02*
X110665714Y-98240057D01*
X110665714Y-98240057D02*
X110713333Y-98335295D01*
X110713333Y-98335295D02*
X110713333Y-98478152D01*
X110713333Y-98478152D02*
X110665714Y-98573390D01*
X110665714Y-98573390D02*
X110618095Y-98621009D01*
X110618095Y-98621009D02*
X110522857Y-98668628D01*
X110522857Y-98668628D02*
X110141905Y-98668628D01*
X111284762Y-98573390D02*
X111189524Y-98525771D01*
X111189524Y-98525771D02*
X111141905Y-98478152D01*
X111141905Y-98478152D02*
X111094286Y-98382914D01*
X111094286Y-98382914D02*
X111094286Y-98335295D01*
X111094286Y-98335295D02*
X111141905Y-98240057D01*
X111141905Y-98240057D02*
X111189524Y-98192438D01*
X111189524Y-98192438D02*
X111284762Y-98144819D01*
X111284762Y-98144819D02*
X111475238Y-98144819D01*
X111475238Y-98144819D02*
X111570476Y-98192438D01*
X111570476Y-98192438D02*
X111618095Y-98240057D01*
X111618095Y-98240057D02*
X111665714Y-98335295D01*
X111665714Y-98335295D02*
X111665714Y-98382914D01*
X111665714Y-98382914D02*
X111618095Y-98478152D01*
X111618095Y-98478152D02*
X111570476Y-98525771D01*
X111570476Y-98525771D02*
X111475238Y-98573390D01*
X111475238Y-98573390D02*
X111284762Y-98573390D01*
X111284762Y-98573390D02*
X111189524Y-98621009D01*
X111189524Y-98621009D02*
X111141905Y-98668628D01*
X111141905Y-98668628D02*
X111094286Y-98763866D01*
X111094286Y-98763866D02*
X111094286Y-98954342D01*
X111094286Y-98954342D02*
X111141905Y-99049580D01*
X111141905Y-99049580D02*
X111189524Y-99097200D01*
X111189524Y-99097200D02*
X111284762Y-99144819D01*
X111284762Y-99144819D02*
X111475238Y-99144819D01*
X111475238Y-99144819D02*
X111570476Y-99097200D01*
X111570476Y-99097200D02*
X111618095Y-99049580D01*
X111618095Y-99049580D02*
X111665714Y-98954342D01*
X111665714Y-98954342D02*
X111665714Y-98763866D01*
X111665714Y-98763866D02*
X111618095Y-98668628D01*
X111618095Y-98668628D02*
X111570476Y-98621009D01*
X111570476Y-98621009D02*
X111475238Y-98573390D01*
X118809819Y-104623333D02*
X119524104Y-104623333D01*
X119524104Y-104623333D02*
X119666961Y-104670952D01*
X119666961Y-104670952D02*
X119762200Y-104766190D01*
X119762200Y-104766190D02*
X119809819Y-104909047D01*
X119809819Y-104909047D02*
X119809819Y-105004285D01*
X119238390Y-104004285D02*
X119190771Y-104099523D01*
X119190771Y-104099523D02*
X119143152Y-104147142D01*
X119143152Y-104147142D02*
X119047914Y-104194761D01*
X119047914Y-104194761D02*
X119000295Y-104194761D01*
X119000295Y-104194761D02*
X118905057Y-104147142D01*
X118905057Y-104147142D02*
X118857438Y-104099523D01*
X118857438Y-104099523D02*
X118809819Y-104004285D01*
X118809819Y-104004285D02*
X118809819Y-103813809D01*
X118809819Y-103813809D02*
X118857438Y-103718571D01*
X118857438Y-103718571D02*
X118905057Y-103670952D01*
X118905057Y-103670952D02*
X119000295Y-103623333D01*
X119000295Y-103623333D02*
X119047914Y-103623333D01*
X119047914Y-103623333D02*
X119143152Y-103670952D01*
X119143152Y-103670952D02*
X119190771Y-103718571D01*
X119190771Y-103718571D02*
X119238390Y-103813809D01*
X119238390Y-103813809D02*
X119238390Y-104004285D01*
X119238390Y-104004285D02*
X119286009Y-104099523D01*
X119286009Y-104099523D02*
X119333628Y-104147142D01*
X119333628Y-104147142D02*
X119428866Y-104194761D01*
X119428866Y-104194761D02*
X119619342Y-104194761D01*
X119619342Y-104194761D02*
X119714580Y-104147142D01*
X119714580Y-104147142D02*
X119762200Y-104099523D01*
X119762200Y-104099523D02*
X119809819Y-104004285D01*
X119809819Y-104004285D02*
X119809819Y-103813809D01*
X119809819Y-103813809D02*
X119762200Y-103718571D01*
X119762200Y-103718571D02*
X119714580Y-103670952D01*
X119714580Y-103670952D02*
X119619342Y-103623333D01*
X119619342Y-103623333D02*
X119428866Y-103623333D01*
X119428866Y-103623333D02*
X119333628Y-103670952D01*
X119333628Y-103670952D02*
X119286009Y-103718571D01*
X119286009Y-103718571D02*
X119238390Y-103813809D01*
D11*
X115155000Y-98190000D02*
X120255000Y-98190000D01*
X115155000Y-107290000D02*
X116455000Y-106290000D01*
X115155000Y-108390000D02*
X115155000Y-98190000D01*
X116455000Y-106290000D02*
X115155000Y-105290000D01*
X120255000Y-98190000D02*
X120255000Y-108390000D01*
X120255000Y-108390000D02*
X115155000Y-108390000D01*
M02*
