%TF.GenerationSoftware,KiCad,Pcbnew,8.0.4-8.0.4-0~ubuntu24.04.1*%
%TF.CreationDate,2024-09-02T11:32:34+02:00*%
%TF.ProjectId,avos_mini_tapper_coils,61766f73-5f6d-4696-9e69-5f7461707065,rev?*%
%TF.SameCoordinates,Original*%
%TF.FileFunction,Drillmap*%
%TF.FilePolarity,Positive*%
%FSLAX45Y45*%
G04 Gerber Fmt 4.5, Leading zero omitted, Abs format (unit mm)*
G04 Created by KiCad (PCBNEW 8.0.4-8.0.4-0~ubuntu24.04.1) date 2024-09-02 11:32:34*
%MOMM*%
%LPD*%
G01*
G04 APERTURE LIST*
%ADD10C,0.150000*%
%ADD11C,0.200000*%
%ADD12C,0.100000*%
%ADD13C,0.320000*%
G04 APERTURE END LIST*
D10*
X10700000Y-11300000D02*
X10700000Y-9399000D01*
X13000000Y-9400000D02*
X10700000Y-9399000D01*
X13000000Y-11300000D02*
X10700000Y-11300000D01*
X13000000Y-9400000D02*
X13000000Y-11300000D01*
D11*
D12*
X11697400Y-9990900D02*
X11773600Y-10067100D01*
X11773600Y-9990900D02*
X11697400Y-10067100D01*
X11697400Y-10190900D02*
X11773600Y-10267100D01*
X11773600Y-10190900D02*
X11697400Y-10267100D01*
X11697400Y-10390900D02*
X11773600Y-10467100D01*
X11773600Y-10390900D02*
X11697400Y-10467100D01*
X11697400Y-10590900D02*
X11773600Y-10667100D01*
X11773600Y-10590900D02*
X11697400Y-10667100D01*
D13*
X11248000Y-9869000D02*
G75*
G02*
X10928000Y-9869000I-160000J0D01*
G01*
X10928000Y-9869000D02*
G75*
G02*
X11248000Y-9869000I160000J0D01*
G01*
D11*
X10953277Y-11618984D02*
X10953277Y-11418984D01*
X10953277Y-11418984D02*
X11000896Y-11418984D01*
X11000896Y-11418984D02*
X11029467Y-11428508D01*
X11029467Y-11428508D02*
X11048515Y-11447555D01*
X11048515Y-11447555D02*
X11058039Y-11466603D01*
X11058039Y-11466603D02*
X11067563Y-11504698D01*
X11067563Y-11504698D02*
X11067563Y-11533269D01*
X11067563Y-11533269D02*
X11058039Y-11571365D01*
X11058039Y-11571365D02*
X11048515Y-11590412D01*
X11048515Y-11590412D02*
X11029467Y-11609460D01*
X11029467Y-11609460D02*
X11000896Y-11618984D01*
X11000896Y-11618984D02*
X10953277Y-11618984D01*
X11153277Y-11618984D02*
X11153277Y-11485650D01*
X11153277Y-11523746D02*
X11162801Y-11504698D01*
X11162801Y-11504698D02*
X11172324Y-11495174D01*
X11172324Y-11495174D02*
X11191372Y-11485650D01*
X11191372Y-11485650D02*
X11210420Y-11485650D01*
X11277086Y-11618984D02*
X11277086Y-11485650D01*
X11277086Y-11418984D02*
X11267562Y-11428508D01*
X11267562Y-11428508D02*
X11277086Y-11438031D01*
X11277086Y-11438031D02*
X11286610Y-11428508D01*
X11286610Y-11428508D02*
X11277086Y-11418984D01*
X11277086Y-11418984D02*
X11277086Y-11438031D01*
X11400896Y-11618984D02*
X11381848Y-11609460D01*
X11381848Y-11609460D02*
X11372324Y-11590412D01*
X11372324Y-11590412D02*
X11372324Y-11418984D01*
X11505658Y-11618984D02*
X11486610Y-11609460D01*
X11486610Y-11609460D02*
X11477086Y-11590412D01*
X11477086Y-11590412D02*
X11477086Y-11418984D01*
X11734229Y-11618984D02*
X11734229Y-11418984D01*
X11734229Y-11418984D02*
X11800896Y-11561841D01*
X11800896Y-11561841D02*
X11867562Y-11418984D01*
X11867562Y-11418984D02*
X11867562Y-11618984D01*
X12048515Y-11618984D02*
X12048515Y-11514222D01*
X12048515Y-11514222D02*
X12038991Y-11495174D01*
X12038991Y-11495174D02*
X12019943Y-11485650D01*
X12019943Y-11485650D02*
X11981848Y-11485650D01*
X11981848Y-11485650D02*
X11962801Y-11495174D01*
X12048515Y-11609460D02*
X12029467Y-11618984D01*
X12029467Y-11618984D02*
X11981848Y-11618984D01*
X11981848Y-11618984D02*
X11962801Y-11609460D01*
X11962801Y-11609460D02*
X11953277Y-11590412D01*
X11953277Y-11590412D02*
X11953277Y-11571365D01*
X11953277Y-11571365D02*
X11962801Y-11552317D01*
X11962801Y-11552317D02*
X11981848Y-11542793D01*
X11981848Y-11542793D02*
X12029467Y-11542793D01*
X12029467Y-11542793D02*
X12048515Y-11533269D01*
X12143753Y-11485650D02*
X12143753Y-11685650D01*
X12143753Y-11495174D02*
X12162801Y-11485650D01*
X12162801Y-11485650D02*
X12200896Y-11485650D01*
X12200896Y-11485650D02*
X12219943Y-11495174D01*
X12219943Y-11495174D02*
X12229467Y-11504698D01*
X12229467Y-11504698D02*
X12238991Y-11523746D01*
X12238991Y-11523746D02*
X12238991Y-11580888D01*
X12238991Y-11580888D02*
X12229467Y-11599936D01*
X12229467Y-11599936D02*
X12219943Y-11609460D01*
X12219943Y-11609460D02*
X12200896Y-11618984D01*
X12200896Y-11618984D02*
X12162801Y-11618984D01*
X12162801Y-11618984D02*
X12143753Y-11609460D01*
X12324705Y-11599936D02*
X12334229Y-11609460D01*
X12334229Y-11609460D02*
X12324705Y-11618984D01*
X12324705Y-11618984D02*
X12315182Y-11609460D01*
X12315182Y-11609460D02*
X12324705Y-11599936D01*
X12324705Y-11599936D02*
X12324705Y-11618984D01*
X12324705Y-11495174D02*
X12334229Y-11504698D01*
X12334229Y-11504698D02*
X12324705Y-11514222D01*
X12324705Y-11514222D02*
X12315182Y-11504698D01*
X12315182Y-11504698D02*
X12324705Y-11495174D01*
X12324705Y-11495174D02*
X12324705Y-11514222D01*
D12*
X10616300Y-11909400D02*
X10692500Y-11985600D01*
X10692500Y-11909400D02*
X10616300Y-11985600D01*
D11*
X10991372Y-11838984D02*
X11010420Y-11838984D01*
X11010420Y-11838984D02*
X11029467Y-11848508D01*
X11029467Y-11848508D02*
X11038991Y-11858031D01*
X11038991Y-11858031D02*
X11048515Y-11877079D01*
X11048515Y-11877079D02*
X11058039Y-11915174D01*
X11058039Y-11915174D02*
X11058039Y-11962793D01*
X11058039Y-11962793D02*
X11048515Y-12000888D01*
X11048515Y-12000888D02*
X11038991Y-12019936D01*
X11038991Y-12019936D02*
X11029467Y-12029460D01*
X11029467Y-12029460D02*
X11010420Y-12038984D01*
X11010420Y-12038984D02*
X10991372Y-12038984D01*
X10991372Y-12038984D02*
X10972324Y-12029460D01*
X10972324Y-12029460D02*
X10962801Y-12019936D01*
X10962801Y-12019936D02*
X10953277Y-12000888D01*
X10953277Y-12000888D02*
X10943753Y-11962793D01*
X10943753Y-11962793D02*
X10943753Y-11915174D01*
X10943753Y-11915174D02*
X10953277Y-11877079D01*
X10953277Y-11877079D02*
X10962801Y-11858031D01*
X10962801Y-11858031D02*
X10972324Y-11848508D01*
X10972324Y-11848508D02*
X10991372Y-11838984D01*
X11143753Y-12019936D02*
X11153277Y-12029460D01*
X11153277Y-12029460D02*
X11143753Y-12038984D01*
X11143753Y-12038984D02*
X11134229Y-12029460D01*
X11134229Y-12029460D02*
X11143753Y-12019936D01*
X11143753Y-12019936D02*
X11143753Y-12038984D01*
X11219943Y-11838984D02*
X11353277Y-11838984D01*
X11353277Y-11838984D02*
X11267562Y-12038984D01*
X11515182Y-11838984D02*
X11477086Y-11838984D01*
X11477086Y-11838984D02*
X11458039Y-11848508D01*
X11458039Y-11848508D02*
X11448515Y-11858031D01*
X11448515Y-11858031D02*
X11429467Y-11886603D01*
X11429467Y-11886603D02*
X11419943Y-11924698D01*
X11419943Y-11924698D02*
X11419943Y-12000888D01*
X11419943Y-12000888D02*
X11429467Y-12019936D01*
X11429467Y-12019936D02*
X11438991Y-12029460D01*
X11438991Y-12029460D02*
X11458039Y-12038984D01*
X11458039Y-12038984D02*
X11496134Y-12038984D01*
X11496134Y-12038984D02*
X11515182Y-12029460D01*
X11515182Y-12029460D02*
X11524705Y-12019936D01*
X11524705Y-12019936D02*
X11534229Y-12000888D01*
X11534229Y-12000888D02*
X11534229Y-11953269D01*
X11534229Y-11953269D02*
X11524705Y-11934222D01*
X11524705Y-11934222D02*
X11515182Y-11924698D01*
X11515182Y-11924698D02*
X11496134Y-11915174D01*
X11496134Y-11915174D02*
X11458039Y-11915174D01*
X11458039Y-11915174D02*
X11438991Y-11924698D01*
X11438991Y-11924698D02*
X11429467Y-11934222D01*
X11429467Y-11934222D02*
X11419943Y-11953269D01*
X11610420Y-11858031D02*
X11619943Y-11848508D01*
X11619943Y-11848508D02*
X11638991Y-11838984D01*
X11638991Y-11838984D02*
X11686610Y-11838984D01*
X11686610Y-11838984D02*
X11705658Y-11848508D01*
X11705658Y-11848508D02*
X11715182Y-11858031D01*
X11715182Y-11858031D02*
X11724705Y-11877079D01*
X11724705Y-11877079D02*
X11724705Y-11896127D01*
X11724705Y-11896127D02*
X11715182Y-11924698D01*
X11715182Y-11924698D02*
X11600896Y-12038984D01*
X11600896Y-12038984D02*
X11724705Y-12038984D01*
X11810420Y-12038984D02*
X11810420Y-11905650D01*
X11810420Y-11924698D02*
X11819943Y-11915174D01*
X11819943Y-11915174D02*
X11838991Y-11905650D01*
X11838991Y-11905650D02*
X11867563Y-11905650D01*
X11867563Y-11905650D02*
X11886610Y-11915174D01*
X11886610Y-11915174D02*
X11896134Y-11934222D01*
X11896134Y-11934222D02*
X11896134Y-12038984D01*
X11896134Y-11934222D02*
X11905658Y-11915174D01*
X11905658Y-11915174D02*
X11924705Y-11905650D01*
X11924705Y-11905650D02*
X11953277Y-11905650D01*
X11953277Y-11905650D02*
X11972324Y-11915174D01*
X11972324Y-11915174D02*
X11981848Y-11934222D01*
X11981848Y-11934222D02*
X11981848Y-12038984D01*
X12077086Y-12038984D02*
X12077086Y-11905650D01*
X12077086Y-11924698D02*
X12086610Y-11915174D01*
X12086610Y-11915174D02*
X12105658Y-11905650D01*
X12105658Y-11905650D02*
X12134229Y-11905650D01*
X12134229Y-11905650D02*
X12153277Y-11915174D01*
X12153277Y-11915174D02*
X12162801Y-11934222D01*
X12162801Y-11934222D02*
X12162801Y-12038984D01*
X12162801Y-11934222D02*
X12172324Y-11915174D01*
X12172324Y-11915174D02*
X12191372Y-11905650D01*
X12191372Y-11905650D02*
X12219943Y-11905650D01*
X12219943Y-11905650D02*
X12238991Y-11915174D01*
X12238991Y-11915174D02*
X12248515Y-11934222D01*
X12248515Y-11934222D02*
X12248515Y-12038984D01*
X12638991Y-11829460D02*
X12467563Y-12086603D01*
X12896134Y-11838984D02*
X12915182Y-11838984D01*
X12915182Y-11838984D02*
X12934229Y-11848508D01*
X12934229Y-11848508D02*
X12943753Y-11858031D01*
X12943753Y-11858031D02*
X12953277Y-11877079D01*
X12953277Y-11877079D02*
X12962801Y-11915174D01*
X12962801Y-11915174D02*
X12962801Y-11962793D01*
X12962801Y-11962793D02*
X12953277Y-12000888D01*
X12953277Y-12000888D02*
X12943753Y-12019936D01*
X12943753Y-12019936D02*
X12934229Y-12029460D01*
X12934229Y-12029460D02*
X12915182Y-12038984D01*
X12915182Y-12038984D02*
X12896134Y-12038984D01*
X12896134Y-12038984D02*
X12877086Y-12029460D01*
X12877086Y-12029460D02*
X12867563Y-12019936D01*
X12867563Y-12019936D02*
X12858039Y-12000888D01*
X12858039Y-12000888D02*
X12848515Y-11962793D01*
X12848515Y-11962793D02*
X12848515Y-11915174D01*
X12848515Y-11915174D02*
X12858039Y-11877079D01*
X12858039Y-11877079D02*
X12867563Y-11858031D01*
X12867563Y-11858031D02*
X12877086Y-11848508D01*
X12877086Y-11848508D02*
X12896134Y-11838984D01*
X13048515Y-12019936D02*
X13058039Y-12029460D01*
X13058039Y-12029460D02*
X13048515Y-12038984D01*
X13048515Y-12038984D02*
X13038991Y-12029460D01*
X13038991Y-12029460D02*
X13048515Y-12019936D01*
X13048515Y-12019936D02*
X13048515Y-12038984D01*
X13181848Y-11838984D02*
X13200896Y-11838984D01*
X13200896Y-11838984D02*
X13219944Y-11848508D01*
X13219944Y-11848508D02*
X13229467Y-11858031D01*
X13229467Y-11858031D02*
X13238991Y-11877079D01*
X13238991Y-11877079D02*
X13248515Y-11915174D01*
X13248515Y-11915174D02*
X13248515Y-11962793D01*
X13248515Y-11962793D02*
X13238991Y-12000888D01*
X13238991Y-12000888D02*
X13229467Y-12019936D01*
X13229467Y-12019936D02*
X13219944Y-12029460D01*
X13219944Y-12029460D02*
X13200896Y-12038984D01*
X13200896Y-12038984D02*
X13181848Y-12038984D01*
X13181848Y-12038984D02*
X13162801Y-12029460D01*
X13162801Y-12029460D02*
X13153277Y-12019936D01*
X13153277Y-12019936D02*
X13143753Y-12000888D01*
X13143753Y-12000888D02*
X13134229Y-11962793D01*
X13134229Y-11962793D02*
X13134229Y-11915174D01*
X13134229Y-11915174D02*
X13143753Y-11877079D01*
X13143753Y-11877079D02*
X13153277Y-11858031D01*
X13153277Y-11858031D02*
X13162801Y-11848508D01*
X13162801Y-11848508D02*
X13181848Y-11838984D01*
X13315182Y-11838984D02*
X13438991Y-11838984D01*
X13438991Y-11838984D02*
X13372325Y-11915174D01*
X13372325Y-11915174D02*
X13400896Y-11915174D01*
X13400896Y-11915174D02*
X13419944Y-11924698D01*
X13419944Y-11924698D02*
X13429467Y-11934222D01*
X13429467Y-11934222D02*
X13438991Y-11953269D01*
X13438991Y-11953269D02*
X13438991Y-12000888D01*
X13438991Y-12000888D02*
X13429467Y-12019936D01*
X13429467Y-12019936D02*
X13419944Y-12029460D01*
X13419944Y-12029460D02*
X13400896Y-12038984D01*
X13400896Y-12038984D02*
X13343753Y-12038984D01*
X13343753Y-12038984D02*
X13324706Y-12029460D01*
X13324706Y-12029460D02*
X13315182Y-12019936D01*
X13562801Y-11838984D02*
X13581848Y-11838984D01*
X13581848Y-11838984D02*
X13600896Y-11848508D01*
X13600896Y-11848508D02*
X13610420Y-11858031D01*
X13610420Y-11858031D02*
X13619944Y-11877079D01*
X13619944Y-11877079D02*
X13629467Y-11915174D01*
X13629467Y-11915174D02*
X13629467Y-11962793D01*
X13629467Y-11962793D02*
X13619944Y-12000888D01*
X13619944Y-12000888D02*
X13610420Y-12019936D01*
X13610420Y-12019936D02*
X13600896Y-12029460D01*
X13600896Y-12029460D02*
X13581848Y-12038984D01*
X13581848Y-12038984D02*
X13562801Y-12038984D01*
X13562801Y-12038984D02*
X13543753Y-12029460D01*
X13543753Y-12029460D02*
X13534229Y-12019936D01*
X13534229Y-12019936D02*
X13524706Y-12000888D01*
X13524706Y-12000888D02*
X13515182Y-11962793D01*
X13515182Y-11962793D02*
X13515182Y-11915174D01*
X13515182Y-11915174D02*
X13524706Y-11877079D01*
X13524706Y-11877079D02*
X13534229Y-11858031D01*
X13534229Y-11858031D02*
X13543753Y-11848508D01*
X13543753Y-11848508D02*
X13562801Y-11838984D01*
X13753277Y-11838984D02*
X13772325Y-11838984D01*
X13772325Y-11838984D02*
X13791372Y-11848508D01*
X13791372Y-11848508D02*
X13800896Y-11858031D01*
X13800896Y-11858031D02*
X13810420Y-11877079D01*
X13810420Y-11877079D02*
X13819944Y-11915174D01*
X13819944Y-11915174D02*
X13819944Y-11962793D01*
X13819944Y-11962793D02*
X13810420Y-12000888D01*
X13810420Y-12000888D02*
X13800896Y-12019936D01*
X13800896Y-12019936D02*
X13791372Y-12029460D01*
X13791372Y-12029460D02*
X13772325Y-12038984D01*
X13772325Y-12038984D02*
X13753277Y-12038984D01*
X13753277Y-12038984D02*
X13734229Y-12029460D01*
X13734229Y-12029460D02*
X13724706Y-12019936D01*
X13724706Y-12019936D02*
X13715182Y-12000888D01*
X13715182Y-12000888D02*
X13705658Y-11962793D01*
X13705658Y-11962793D02*
X13705658Y-11915174D01*
X13705658Y-11915174D02*
X13715182Y-11877079D01*
X13715182Y-11877079D02*
X13724706Y-11858031D01*
X13724706Y-11858031D02*
X13734229Y-11848508D01*
X13734229Y-11848508D02*
X13753277Y-11838984D01*
X13896134Y-11838984D02*
X13896134Y-11877079D01*
X13972325Y-11838984D02*
X13972325Y-11877079D01*
X14267563Y-12115174D02*
X14258039Y-12105650D01*
X14258039Y-12105650D02*
X14238991Y-12077079D01*
X14238991Y-12077079D02*
X14229468Y-12058031D01*
X14229468Y-12058031D02*
X14219944Y-12029460D01*
X14219944Y-12029460D02*
X14210420Y-11981841D01*
X14210420Y-11981841D02*
X14210420Y-11943746D01*
X14210420Y-11943746D02*
X14219944Y-11896127D01*
X14219944Y-11896127D02*
X14229468Y-11867555D01*
X14229468Y-11867555D02*
X14238991Y-11848508D01*
X14238991Y-11848508D02*
X14258039Y-11819936D01*
X14258039Y-11819936D02*
X14267563Y-11810412D01*
X14429468Y-11905650D02*
X14429468Y-12038984D01*
X14381848Y-11829460D02*
X14334229Y-11972317D01*
X14334229Y-11972317D02*
X14458039Y-11972317D01*
X14686610Y-12038984D02*
X14686610Y-11838984D01*
X14772325Y-12038984D02*
X14772325Y-11934222D01*
X14772325Y-11934222D02*
X14762801Y-11915174D01*
X14762801Y-11915174D02*
X14743753Y-11905650D01*
X14743753Y-11905650D02*
X14715182Y-11905650D01*
X14715182Y-11905650D02*
X14696134Y-11915174D01*
X14696134Y-11915174D02*
X14686610Y-11924698D01*
X14896134Y-12038984D02*
X14877087Y-12029460D01*
X14877087Y-12029460D02*
X14867563Y-12019936D01*
X14867563Y-12019936D02*
X14858039Y-12000888D01*
X14858039Y-12000888D02*
X14858039Y-11943746D01*
X14858039Y-11943746D02*
X14867563Y-11924698D01*
X14867563Y-11924698D02*
X14877087Y-11915174D01*
X14877087Y-11915174D02*
X14896134Y-11905650D01*
X14896134Y-11905650D02*
X14924706Y-11905650D01*
X14924706Y-11905650D02*
X14943753Y-11915174D01*
X14943753Y-11915174D02*
X14953277Y-11924698D01*
X14953277Y-11924698D02*
X14962801Y-11943746D01*
X14962801Y-11943746D02*
X14962801Y-12000888D01*
X14962801Y-12000888D02*
X14953277Y-12019936D01*
X14953277Y-12019936D02*
X14943753Y-12029460D01*
X14943753Y-12029460D02*
X14924706Y-12038984D01*
X14924706Y-12038984D02*
X14896134Y-12038984D01*
X15077087Y-12038984D02*
X15058039Y-12029460D01*
X15058039Y-12029460D02*
X15048515Y-12010412D01*
X15048515Y-12010412D02*
X15048515Y-11838984D01*
X15229468Y-12029460D02*
X15210420Y-12038984D01*
X15210420Y-12038984D02*
X15172325Y-12038984D01*
X15172325Y-12038984D02*
X15153277Y-12029460D01*
X15153277Y-12029460D02*
X15143753Y-12010412D01*
X15143753Y-12010412D02*
X15143753Y-11934222D01*
X15143753Y-11934222D02*
X15153277Y-11915174D01*
X15153277Y-11915174D02*
X15172325Y-11905650D01*
X15172325Y-11905650D02*
X15210420Y-11905650D01*
X15210420Y-11905650D02*
X15229468Y-11915174D01*
X15229468Y-11915174D02*
X15238991Y-11934222D01*
X15238991Y-11934222D02*
X15238991Y-11953269D01*
X15238991Y-11953269D02*
X15143753Y-11972317D01*
X15315182Y-12029460D02*
X15334230Y-12038984D01*
X15334230Y-12038984D02*
X15372325Y-12038984D01*
X15372325Y-12038984D02*
X15391372Y-12029460D01*
X15391372Y-12029460D02*
X15400896Y-12010412D01*
X15400896Y-12010412D02*
X15400896Y-12000888D01*
X15400896Y-12000888D02*
X15391372Y-11981841D01*
X15391372Y-11981841D02*
X15372325Y-11972317D01*
X15372325Y-11972317D02*
X15343753Y-11972317D01*
X15343753Y-11972317D02*
X15324706Y-11962793D01*
X15324706Y-11962793D02*
X15315182Y-11943746D01*
X15315182Y-11943746D02*
X15315182Y-11934222D01*
X15315182Y-11934222D02*
X15324706Y-11915174D01*
X15324706Y-11915174D02*
X15343753Y-11905650D01*
X15343753Y-11905650D02*
X15372325Y-11905650D01*
X15372325Y-11905650D02*
X15391372Y-11915174D01*
X15467563Y-12115174D02*
X15477087Y-12105650D01*
X15477087Y-12105650D02*
X15496134Y-12077079D01*
X15496134Y-12077079D02*
X15505658Y-12058031D01*
X15505658Y-12058031D02*
X15515182Y-12029460D01*
X15515182Y-12029460D02*
X15524706Y-11981841D01*
X15524706Y-11981841D02*
X15524706Y-11943746D01*
X15524706Y-11943746D02*
X15515182Y-11896127D01*
X15515182Y-11896127D02*
X15505658Y-11867555D01*
X15505658Y-11867555D02*
X15496134Y-11848508D01*
X15496134Y-11848508D02*
X15477087Y-11819936D01*
X15477087Y-11819936D02*
X15467563Y-11810412D01*
X10692500Y-12211500D02*
G75*
G02*
X10492500Y-12211500I-100000J0D01*
G01*
X10492500Y-12211500D02*
G75*
G02*
X10692500Y-12211500I100000J0D01*
G01*
X10934229Y-12102984D02*
X11058039Y-12102984D01*
X11058039Y-12102984D02*
X10991372Y-12179174D01*
X10991372Y-12179174D02*
X11019944Y-12179174D01*
X11019944Y-12179174D02*
X11038991Y-12188698D01*
X11038991Y-12188698D02*
X11048515Y-12198222D01*
X11048515Y-12198222D02*
X11058039Y-12217269D01*
X11058039Y-12217269D02*
X11058039Y-12264888D01*
X11058039Y-12264888D02*
X11048515Y-12283936D01*
X11048515Y-12283936D02*
X11038991Y-12293460D01*
X11038991Y-12293460D02*
X11019944Y-12302984D01*
X11019944Y-12302984D02*
X10962801Y-12302984D01*
X10962801Y-12302984D02*
X10943753Y-12293460D01*
X10943753Y-12293460D02*
X10934229Y-12283936D01*
X11143753Y-12283936D02*
X11153277Y-12293460D01*
X11153277Y-12293460D02*
X11143753Y-12302984D01*
X11143753Y-12302984D02*
X11134229Y-12293460D01*
X11134229Y-12293460D02*
X11143753Y-12283936D01*
X11143753Y-12283936D02*
X11143753Y-12302984D01*
X11229467Y-12122031D02*
X11238991Y-12112508D01*
X11238991Y-12112508D02*
X11258039Y-12102984D01*
X11258039Y-12102984D02*
X11305658Y-12102984D01*
X11305658Y-12102984D02*
X11324705Y-12112508D01*
X11324705Y-12112508D02*
X11334229Y-12122031D01*
X11334229Y-12122031D02*
X11343753Y-12141079D01*
X11343753Y-12141079D02*
X11343753Y-12160127D01*
X11343753Y-12160127D02*
X11334229Y-12188698D01*
X11334229Y-12188698D02*
X11219943Y-12302984D01*
X11219943Y-12302984D02*
X11343753Y-12302984D01*
X11467562Y-12102984D02*
X11486610Y-12102984D01*
X11486610Y-12102984D02*
X11505658Y-12112508D01*
X11505658Y-12112508D02*
X11515182Y-12122031D01*
X11515182Y-12122031D02*
X11524705Y-12141079D01*
X11524705Y-12141079D02*
X11534229Y-12179174D01*
X11534229Y-12179174D02*
X11534229Y-12226793D01*
X11534229Y-12226793D02*
X11524705Y-12264888D01*
X11524705Y-12264888D02*
X11515182Y-12283936D01*
X11515182Y-12283936D02*
X11505658Y-12293460D01*
X11505658Y-12293460D02*
X11486610Y-12302984D01*
X11486610Y-12302984D02*
X11467562Y-12302984D01*
X11467562Y-12302984D02*
X11448515Y-12293460D01*
X11448515Y-12293460D02*
X11438991Y-12283936D01*
X11438991Y-12283936D02*
X11429467Y-12264888D01*
X11429467Y-12264888D02*
X11419943Y-12226793D01*
X11419943Y-12226793D02*
X11419943Y-12179174D01*
X11419943Y-12179174D02*
X11429467Y-12141079D01*
X11429467Y-12141079D02*
X11438991Y-12122031D01*
X11438991Y-12122031D02*
X11448515Y-12112508D01*
X11448515Y-12112508D02*
X11467562Y-12102984D01*
X11658039Y-12102984D02*
X11677086Y-12102984D01*
X11677086Y-12102984D02*
X11696134Y-12112508D01*
X11696134Y-12112508D02*
X11705658Y-12122031D01*
X11705658Y-12122031D02*
X11715182Y-12141079D01*
X11715182Y-12141079D02*
X11724705Y-12179174D01*
X11724705Y-12179174D02*
X11724705Y-12226793D01*
X11724705Y-12226793D02*
X11715182Y-12264888D01*
X11715182Y-12264888D02*
X11705658Y-12283936D01*
X11705658Y-12283936D02*
X11696134Y-12293460D01*
X11696134Y-12293460D02*
X11677086Y-12302984D01*
X11677086Y-12302984D02*
X11658039Y-12302984D01*
X11658039Y-12302984D02*
X11638991Y-12293460D01*
X11638991Y-12293460D02*
X11629467Y-12283936D01*
X11629467Y-12283936D02*
X11619943Y-12264888D01*
X11619943Y-12264888D02*
X11610420Y-12226793D01*
X11610420Y-12226793D02*
X11610420Y-12179174D01*
X11610420Y-12179174D02*
X11619943Y-12141079D01*
X11619943Y-12141079D02*
X11629467Y-12122031D01*
X11629467Y-12122031D02*
X11638991Y-12112508D01*
X11638991Y-12112508D02*
X11658039Y-12102984D01*
X11810420Y-12302984D02*
X11810420Y-12169650D01*
X11810420Y-12188698D02*
X11819943Y-12179174D01*
X11819943Y-12179174D02*
X11838991Y-12169650D01*
X11838991Y-12169650D02*
X11867563Y-12169650D01*
X11867563Y-12169650D02*
X11886610Y-12179174D01*
X11886610Y-12179174D02*
X11896134Y-12198222D01*
X11896134Y-12198222D02*
X11896134Y-12302984D01*
X11896134Y-12198222D02*
X11905658Y-12179174D01*
X11905658Y-12179174D02*
X11924705Y-12169650D01*
X11924705Y-12169650D02*
X11953277Y-12169650D01*
X11953277Y-12169650D02*
X11972324Y-12179174D01*
X11972324Y-12179174D02*
X11981848Y-12198222D01*
X11981848Y-12198222D02*
X11981848Y-12302984D01*
X12077086Y-12302984D02*
X12077086Y-12169650D01*
X12077086Y-12188698D02*
X12086610Y-12179174D01*
X12086610Y-12179174D02*
X12105658Y-12169650D01*
X12105658Y-12169650D02*
X12134229Y-12169650D01*
X12134229Y-12169650D02*
X12153277Y-12179174D01*
X12153277Y-12179174D02*
X12162801Y-12198222D01*
X12162801Y-12198222D02*
X12162801Y-12302984D01*
X12162801Y-12198222D02*
X12172324Y-12179174D01*
X12172324Y-12179174D02*
X12191372Y-12169650D01*
X12191372Y-12169650D02*
X12219943Y-12169650D01*
X12219943Y-12169650D02*
X12238991Y-12179174D01*
X12238991Y-12179174D02*
X12248515Y-12198222D01*
X12248515Y-12198222D02*
X12248515Y-12302984D01*
X12638991Y-12093460D02*
X12467563Y-12350603D01*
X12896134Y-12102984D02*
X12915182Y-12102984D01*
X12915182Y-12102984D02*
X12934229Y-12112508D01*
X12934229Y-12112508D02*
X12943753Y-12122031D01*
X12943753Y-12122031D02*
X12953277Y-12141079D01*
X12953277Y-12141079D02*
X12962801Y-12179174D01*
X12962801Y-12179174D02*
X12962801Y-12226793D01*
X12962801Y-12226793D02*
X12953277Y-12264888D01*
X12953277Y-12264888D02*
X12943753Y-12283936D01*
X12943753Y-12283936D02*
X12934229Y-12293460D01*
X12934229Y-12293460D02*
X12915182Y-12302984D01*
X12915182Y-12302984D02*
X12896134Y-12302984D01*
X12896134Y-12302984D02*
X12877086Y-12293460D01*
X12877086Y-12293460D02*
X12867563Y-12283936D01*
X12867563Y-12283936D02*
X12858039Y-12264888D01*
X12858039Y-12264888D02*
X12848515Y-12226793D01*
X12848515Y-12226793D02*
X12848515Y-12179174D01*
X12848515Y-12179174D02*
X12858039Y-12141079D01*
X12858039Y-12141079D02*
X12867563Y-12122031D01*
X12867563Y-12122031D02*
X12877086Y-12112508D01*
X12877086Y-12112508D02*
X12896134Y-12102984D01*
X13048515Y-12283936D02*
X13058039Y-12293460D01*
X13058039Y-12293460D02*
X13048515Y-12302984D01*
X13048515Y-12302984D02*
X13038991Y-12293460D01*
X13038991Y-12293460D02*
X13048515Y-12283936D01*
X13048515Y-12283936D02*
X13048515Y-12302984D01*
X13248515Y-12302984D02*
X13134229Y-12302984D01*
X13191372Y-12302984D02*
X13191372Y-12102984D01*
X13191372Y-12102984D02*
X13172325Y-12131555D01*
X13172325Y-12131555D02*
X13153277Y-12150603D01*
X13153277Y-12150603D02*
X13134229Y-12160127D01*
X13324706Y-12122031D02*
X13334229Y-12112508D01*
X13334229Y-12112508D02*
X13353277Y-12102984D01*
X13353277Y-12102984D02*
X13400896Y-12102984D01*
X13400896Y-12102984D02*
X13419944Y-12112508D01*
X13419944Y-12112508D02*
X13429467Y-12122031D01*
X13429467Y-12122031D02*
X13438991Y-12141079D01*
X13438991Y-12141079D02*
X13438991Y-12160127D01*
X13438991Y-12160127D02*
X13429467Y-12188698D01*
X13429467Y-12188698D02*
X13315182Y-12302984D01*
X13315182Y-12302984D02*
X13438991Y-12302984D01*
X13610420Y-12102984D02*
X13572325Y-12102984D01*
X13572325Y-12102984D02*
X13553277Y-12112508D01*
X13553277Y-12112508D02*
X13543753Y-12122031D01*
X13543753Y-12122031D02*
X13524706Y-12150603D01*
X13524706Y-12150603D02*
X13515182Y-12188698D01*
X13515182Y-12188698D02*
X13515182Y-12264888D01*
X13515182Y-12264888D02*
X13524706Y-12283936D01*
X13524706Y-12283936D02*
X13534229Y-12293460D01*
X13534229Y-12293460D02*
X13553277Y-12302984D01*
X13553277Y-12302984D02*
X13591372Y-12302984D01*
X13591372Y-12302984D02*
X13610420Y-12293460D01*
X13610420Y-12293460D02*
X13619944Y-12283936D01*
X13619944Y-12283936D02*
X13629467Y-12264888D01*
X13629467Y-12264888D02*
X13629467Y-12217269D01*
X13629467Y-12217269D02*
X13619944Y-12198222D01*
X13619944Y-12198222D02*
X13610420Y-12188698D01*
X13610420Y-12188698D02*
X13591372Y-12179174D01*
X13591372Y-12179174D02*
X13553277Y-12179174D01*
X13553277Y-12179174D02*
X13534229Y-12188698D01*
X13534229Y-12188698D02*
X13524706Y-12198222D01*
X13524706Y-12198222D02*
X13515182Y-12217269D01*
X13753277Y-12102984D02*
X13772325Y-12102984D01*
X13772325Y-12102984D02*
X13791372Y-12112508D01*
X13791372Y-12112508D02*
X13800896Y-12122031D01*
X13800896Y-12122031D02*
X13810420Y-12141079D01*
X13810420Y-12141079D02*
X13819944Y-12179174D01*
X13819944Y-12179174D02*
X13819944Y-12226793D01*
X13819944Y-12226793D02*
X13810420Y-12264888D01*
X13810420Y-12264888D02*
X13800896Y-12283936D01*
X13800896Y-12283936D02*
X13791372Y-12293460D01*
X13791372Y-12293460D02*
X13772325Y-12302984D01*
X13772325Y-12302984D02*
X13753277Y-12302984D01*
X13753277Y-12302984D02*
X13734229Y-12293460D01*
X13734229Y-12293460D02*
X13724706Y-12283936D01*
X13724706Y-12283936D02*
X13715182Y-12264888D01*
X13715182Y-12264888D02*
X13705658Y-12226793D01*
X13705658Y-12226793D02*
X13705658Y-12179174D01*
X13705658Y-12179174D02*
X13715182Y-12141079D01*
X13715182Y-12141079D02*
X13724706Y-12122031D01*
X13724706Y-12122031D02*
X13734229Y-12112508D01*
X13734229Y-12112508D02*
X13753277Y-12102984D01*
X13896134Y-12102984D02*
X13896134Y-12141079D01*
X13972325Y-12102984D02*
X13972325Y-12141079D01*
X14267563Y-12379174D02*
X14258039Y-12369650D01*
X14258039Y-12369650D02*
X14238991Y-12341079D01*
X14238991Y-12341079D02*
X14229468Y-12322031D01*
X14229468Y-12322031D02*
X14219944Y-12293460D01*
X14219944Y-12293460D02*
X14210420Y-12245841D01*
X14210420Y-12245841D02*
X14210420Y-12207746D01*
X14210420Y-12207746D02*
X14219944Y-12160127D01*
X14219944Y-12160127D02*
X14229468Y-12131555D01*
X14229468Y-12131555D02*
X14238991Y-12112508D01*
X14238991Y-12112508D02*
X14258039Y-12083936D01*
X14258039Y-12083936D02*
X14267563Y-12074412D01*
X14448515Y-12302984D02*
X14334229Y-12302984D01*
X14391372Y-12302984D02*
X14391372Y-12102984D01*
X14391372Y-12102984D02*
X14372325Y-12131555D01*
X14372325Y-12131555D02*
X14353277Y-12150603D01*
X14353277Y-12150603D02*
X14334229Y-12160127D01*
X14686610Y-12302984D02*
X14686610Y-12102984D01*
X14772325Y-12302984D02*
X14772325Y-12198222D01*
X14772325Y-12198222D02*
X14762801Y-12179174D01*
X14762801Y-12179174D02*
X14743753Y-12169650D01*
X14743753Y-12169650D02*
X14715182Y-12169650D01*
X14715182Y-12169650D02*
X14696134Y-12179174D01*
X14696134Y-12179174D02*
X14686610Y-12188698D01*
X14896134Y-12302984D02*
X14877087Y-12293460D01*
X14877087Y-12293460D02*
X14867563Y-12283936D01*
X14867563Y-12283936D02*
X14858039Y-12264888D01*
X14858039Y-12264888D02*
X14858039Y-12207746D01*
X14858039Y-12207746D02*
X14867563Y-12188698D01*
X14867563Y-12188698D02*
X14877087Y-12179174D01*
X14877087Y-12179174D02*
X14896134Y-12169650D01*
X14896134Y-12169650D02*
X14924706Y-12169650D01*
X14924706Y-12169650D02*
X14943753Y-12179174D01*
X14943753Y-12179174D02*
X14953277Y-12188698D01*
X14953277Y-12188698D02*
X14962801Y-12207746D01*
X14962801Y-12207746D02*
X14962801Y-12264888D01*
X14962801Y-12264888D02*
X14953277Y-12283936D01*
X14953277Y-12283936D02*
X14943753Y-12293460D01*
X14943753Y-12293460D02*
X14924706Y-12302984D01*
X14924706Y-12302984D02*
X14896134Y-12302984D01*
X15077087Y-12302984D02*
X15058039Y-12293460D01*
X15058039Y-12293460D02*
X15048515Y-12274412D01*
X15048515Y-12274412D02*
X15048515Y-12102984D01*
X15229468Y-12293460D02*
X15210420Y-12302984D01*
X15210420Y-12302984D02*
X15172325Y-12302984D01*
X15172325Y-12302984D02*
X15153277Y-12293460D01*
X15153277Y-12293460D02*
X15143753Y-12274412D01*
X15143753Y-12274412D02*
X15143753Y-12198222D01*
X15143753Y-12198222D02*
X15153277Y-12179174D01*
X15153277Y-12179174D02*
X15172325Y-12169650D01*
X15172325Y-12169650D02*
X15210420Y-12169650D01*
X15210420Y-12169650D02*
X15229468Y-12179174D01*
X15229468Y-12179174D02*
X15238991Y-12198222D01*
X15238991Y-12198222D02*
X15238991Y-12217269D01*
X15238991Y-12217269D02*
X15143753Y-12236317D01*
X15305658Y-12379174D02*
X15315182Y-12369650D01*
X15315182Y-12369650D02*
X15334230Y-12341079D01*
X15334230Y-12341079D02*
X15343753Y-12322031D01*
X15343753Y-12322031D02*
X15353277Y-12293460D01*
X15353277Y-12293460D02*
X15362801Y-12245841D01*
X15362801Y-12245841D02*
X15362801Y-12207746D01*
X15362801Y-12207746D02*
X15353277Y-12160127D01*
X15353277Y-12160127D02*
X15343753Y-12131555D01*
X15343753Y-12131555D02*
X15334230Y-12112508D01*
X15334230Y-12112508D02*
X15315182Y-12083936D01*
X15315182Y-12083936D02*
X15305658Y-12074412D01*
M02*
