G04 #@! TF.GenerationSoftware,KiCad,Pcbnew,8.0.4-8.0.4-0~ubuntu24.04.1*
G04 #@! TF.CreationDate,2024-09-02T11:32:13+02:00*
G04 #@! TF.ProjectId,avos_mini_tapper_coils,61766f73-5f6d-4696-9e69-5f7461707065,rev?*
G04 #@! TF.SameCoordinates,Original*
G04 #@! TF.FileFunction,Copper,L1,Top*
G04 #@! TF.FilePolarity,Positive*
%FSLAX46Y46*%
G04 Gerber Fmt 4.6, Leading zero omitted, Abs format (unit mm)*
G04 Created by KiCad (PCBNEW 8.0.4-8.0.4-0~ubuntu24.04.1) date 2024-09-02 11:32:13*
%MOMM*%
%LPD*%
G01*
G04 APERTURE LIST*
G04 #@! TA.AperFunction,ComponentPad*
%ADD10C,5.600000*%
G04 #@! TD*
G04 #@! TA.AperFunction,ComponentPad*
%ADD11R,1.524000X1.524000*%
G04 #@! TD*
G04 #@! TA.AperFunction,ComponentPad*
%ADD12C,1.524000*%
G04 #@! TD*
G04 APERTURE END LIST*
D10*
X110880000Y-98690000D03*
D11*
X117355000Y-106290000D03*
D12*
X117355000Y-104290000D03*
X117355000Y-102290000D03*
X117355000Y-100290000D03*
G04 #@! TA.AperFunction,Conductor*
G36*
X129375554Y-94500228D02*
G01*
X129442585Y-94519942D01*
X129488317Y-94572766D01*
X129499500Y-94624228D01*
X129499500Y-112375500D01*
X129479815Y-112442539D01*
X129427011Y-112488294D01*
X129375500Y-112499500D01*
X107624500Y-112499500D01*
X107557461Y-112479815D01*
X107511706Y-112427011D01*
X107500500Y-112375500D01*
X107500500Y-99763396D01*
X107520185Y-99696357D01*
X107572989Y-99650602D01*
X107642147Y-99640658D01*
X107705703Y-99669683D01*
X107743477Y-99728461D01*
X107743980Y-99730223D01*
X107748147Y-99745232D01*
X107748149Y-99745239D01*
X107880597Y-100077659D01*
X107880606Y-100077677D01*
X108048218Y-100393827D01*
X108249024Y-100689994D01*
X108249035Y-100690008D01*
X108376441Y-100840002D01*
X108376442Y-100840002D01*
X109585747Y-99630697D01*
X109659588Y-99732330D01*
X109837670Y-99910412D01*
X109939300Y-99984251D01*
X108727257Y-101196294D01*
X108740495Y-101208836D01*
X109025367Y-101425388D01*
X109025370Y-101425390D01*
X109331990Y-101609876D01*
X109656739Y-101760122D01*
X109656744Y-101760123D01*
X109995855Y-101874383D01*
X110345339Y-101951311D01*
X110701075Y-101989999D01*
X110701085Y-101990000D01*
X111058915Y-101990000D01*
X111058924Y-101989999D01*
X111414660Y-101951311D01*
X111764144Y-101874383D01*
X112103255Y-101760123D01*
X112103260Y-101760122D01*
X112428009Y-101609876D01*
X112734629Y-101425390D01*
X112734632Y-101425388D01*
X113019509Y-101208831D01*
X113032742Y-101196295D01*
X113032742Y-101196294D01*
X111820699Y-99984251D01*
X111922330Y-99910412D01*
X112100412Y-99732330D01*
X112174251Y-99630698D01*
X113383556Y-100840002D01*
X113510972Y-100689998D01*
X113510975Y-100689994D01*
X113711781Y-100393827D01*
X113766828Y-100289997D01*
X116087677Y-100289997D01*
X116087677Y-100290002D01*
X116106929Y-100510062D01*
X116106930Y-100510070D01*
X116164104Y-100723445D01*
X116164105Y-100723447D01*
X116164106Y-100723450D01*
X116218455Y-100840002D01*
X116257466Y-100923662D01*
X116257468Y-100923666D01*
X116384170Y-101104615D01*
X116384175Y-101104621D01*
X116481872Y-101202318D01*
X116515357Y-101263641D01*
X116510373Y-101333333D01*
X116481873Y-101377680D01*
X116384172Y-101475381D01*
X116257466Y-101656338D01*
X116257465Y-101656340D01*
X116164107Y-101856548D01*
X116164104Y-101856554D01*
X116106930Y-102069929D01*
X116106929Y-102069937D01*
X116087677Y-102289997D01*
X116087677Y-102290002D01*
X116106929Y-102510062D01*
X116106930Y-102510070D01*
X116164104Y-102723445D01*
X116164105Y-102723447D01*
X116164106Y-102723450D01*
X116257466Y-102923662D01*
X116257468Y-102923666D01*
X116384170Y-103104615D01*
X116384175Y-103104621D01*
X116481872Y-103202318D01*
X116515357Y-103263641D01*
X116510373Y-103333333D01*
X116481873Y-103377680D01*
X116384172Y-103475381D01*
X116257466Y-103656338D01*
X116257465Y-103656340D01*
X116164107Y-103856548D01*
X116164104Y-103856554D01*
X116106930Y-104069929D01*
X116106929Y-104069937D01*
X116087677Y-104289997D01*
X116087677Y-104290002D01*
X116106929Y-104510062D01*
X116106930Y-104510070D01*
X116164104Y-104723445D01*
X116164105Y-104723447D01*
X116164106Y-104723450D01*
X116257466Y-104923662D01*
X116294371Y-104976368D01*
X116316698Y-105042573D01*
X116299688Y-105110341D01*
X116267109Y-105146756D01*
X116235454Y-105170453D01*
X116235452Y-105170455D01*
X116149206Y-105285664D01*
X116149202Y-105285671D01*
X116098908Y-105420517D01*
X116092501Y-105480116D01*
X116092501Y-105480123D01*
X116092500Y-105480135D01*
X116092500Y-107099870D01*
X116092501Y-107099876D01*
X116098908Y-107159483D01*
X116149202Y-107294328D01*
X116149206Y-107294335D01*
X116235452Y-107409544D01*
X116235455Y-107409547D01*
X116350664Y-107495793D01*
X116350671Y-107495797D01*
X116485517Y-107546091D01*
X116485516Y-107546091D01*
X116492444Y-107546835D01*
X116545127Y-107552500D01*
X118164872Y-107552499D01*
X118224483Y-107546091D01*
X118359331Y-107495796D01*
X118474546Y-107409546D01*
X118560796Y-107294331D01*
X118611091Y-107159483D01*
X118617500Y-107099873D01*
X118617499Y-105480128D01*
X118611091Y-105420517D01*
X118560796Y-105285669D01*
X118560795Y-105285668D01*
X118560793Y-105285664D01*
X118474547Y-105170455D01*
X118474544Y-105170453D01*
X118442890Y-105146756D01*
X118401021Y-105090823D01*
X118396037Y-105021131D01*
X118415629Y-104976367D01*
X118452534Y-104923662D01*
X118545894Y-104723450D01*
X118603070Y-104510068D01*
X118622323Y-104290000D01*
X118603070Y-104069932D01*
X118545894Y-103856550D01*
X118452534Y-103656339D01*
X118325826Y-103475380D01*
X118325824Y-103475377D01*
X118228127Y-103377680D01*
X118194642Y-103316357D01*
X118199626Y-103246665D01*
X118228123Y-103202322D01*
X118325826Y-103104620D01*
X118452534Y-102923662D01*
X118545894Y-102723450D01*
X118603070Y-102510068D01*
X118622323Y-102290000D01*
X118603070Y-102069932D01*
X118545894Y-101856550D01*
X118452534Y-101656339D01*
X118325826Y-101475380D01*
X118325824Y-101475377D01*
X118228127Y-101377680D01*
X118194642Y-101316357D01*
X118199626Y-101246665D01*
X118228123Y-101202322D01*
X118325826Y-101104620D01*
X118452534Y-100923662D01*
X118545894Y-100723450D01*
X118603070Y-100510068D01*
X118622323Y-100290000D01*
X118603070Y-100069932D01*
X118545894Y-99856550D01*
X118452534Y-99656339D01*
X118325826Y-99475380D01*
X118169620Y-99319174D01*
X118169616Y-99319171D01*
X118169615Y-99319170D01*
X117988666Y-99192468D01*
X117988662Y-99192466D01*
X117988660Y-99192465D01*
X117788450Y-99099106D01*
X117788447Y-99099105D01*
X117788445Y-99099104D01*
X117575070Y-99041930D01*
X117575062Y-99041929D01*
X117355002Y-99022677D01*
X117354998Y-99022677D01*
X117134937Y-99041929D01*
X117134929Y-99041930D01*
X116921554Y-99099104D01*
X116921548Y-99099107D01*
X116721340Y-99192465D01*
X116721338Y-99192466D01*
X116540377Y-99319175D01*
X116384175Y-99475377D01*
X116257466Y-99656338D01*
X116257465Y-99656340D01*
X116164107Y-99856548D01*
X116164104Y-99856554D01*
X116106930Y-100069929D01*
X116106929Y-100069937D01*
X116087677Y-100289997D01*
X113766828Y-100289997D01*
X113879393Y-100077677D01*
X113879402Y-100077659D01*
X114011850Y-99745239D01*
X114011852Y-99745232D01*
X114107578Y-99400457D01*
X114107584Y-99400431D01*
X114165472Y-99047331D01*
X114165473Y-99047314D01*
X114184847Y-98690002D01*
X114184847Y-98689997D01*
X114165473Y-98332685D01*
X114165472Y-98332668D01*
X114107584Y-97979568D01*
X114107578Y-97979542D01*
X114011852Y-97634767D01*
X114011850Y-97634760D01*
X113879402Y-97302340D01*
X113879393Y-97302322D01*
X113711781Y-96986172D01*
X113510975Y-96690005D01*
X113510964Y-96689991D01*
X113383556Y-96539996D01*
X112174251Y-97749301D01*
X112100412Y-97647670D01*
X111922330Y-97469588D01*
X111820698Y-97395748D01*
X113032742Y-96183704D01*
X113019504Y-96171163D01*
X112734632Y-95954611D01*
X112734629Y-95954609D01*
X112428009Y-95770123D01*
X112103260Y-95619877D01*
X112103255Y-95619876D01*
X111764144Y-95505616D01*
X111414660Y-95428688D01*
X111058924Y-95390000D01*
X110701075Y-95390000D01*
X110345339Y-95428688D01*
X109995855Y-95505616D01*
X109656744Y-95619876D01*
X109656739Y-95619877D01*
X109331990Y-95770123D01*
X109025370Y-95954609D01*
X109025367Y-95954611D01*
X108740486Y-96171170D01*
X108740485Y-96171171D01*
X108727257Y-96183702D01*
X108727256Y-96183703D01*
X109939301Y-97395748D01*
X109837670Y-97469588D01*
X109659588Y-97647670D01*
X109585748Y-97749301D01*
X108376442Y-96539995D01*
X108376441Y-96539996D01*
X108249033Y-96689992D01*
X108048218Y-96986172D01*
X107880606Y-97302322D01*
X107880597Y-97302340D01*
X107748149Y-97634759D01*
X107743980Y-97649778D01*
X107707077Y-97709107D01*
X107643957Y-97739067D01*
X107574659Y-97730145D01*
X107521185Y-97685175D01*
X107500514Y-97618433D01*
X107500500Y-97616603D01*
X107500500Y-94614770D01*
X107520185Y-94547731D01*
X107572989Y-94501976D01*
X107624549Y-94490770D01*
X129375554Y-94500228D01*
G37*
G04 #@! TD.AperFunction*
M02*
