G04 #@! TF.GenerationSoftware,KiCad,Pcbnew,8.0.4-8.0.4-0~ubuntu24.04.1*
G04 #@! TF.CreationDate,2024-09-02T11:32:14+02:00*
G04 #@! TF.ProjectId,avos_mini_tapper_coils,61766f73-5f6d-4696-9e69-5f7461707065,rev?*
G04 #@! TF.SameCoordinates,Original*
G04 #@! TF.FileFunction,AssemblyDrawing,Bot*
%FSLAX46Y46*%
G04 Gerber Fmt 4.6, Leading zero omitted, Abs format (unit mm)*
G04 Created by KiCad (PCBNEW 8.0.4-8.0.4-0~ubuntu24.04.1) date 2024-09-02 11:32:14*
%MOMM*%
%LPD*%
G01*
G04 APERTURE LIST*
%ADD10C,0.150000*%
%ADD11C,0.100000*%
G04 APERTURE END LIST*
D10*
X120769819Y-103176666D02*
X121484104Y-103176666D01*
X121484104Y-103176666D02*
X121626961Y-103129047D01*
X121626961Y-103129047D02*
X121722200Y-103033809D01*
X121722200Y-103033809D02*
X121769819Y-102890952D01*
X121769819Y-102890952D02*
X121769819Y-102795714D01*
X121769819Y-104176666D02*
X121769819Y-103605238D01*
X121769819Y-103890952D02*
X120769819Y-103890952D01*
X120769819Y-103890952D02*
X120912676Y-103795714D01*
X120912676Y-103795714D02*
X121007914Y-103700476D01*
X121007914Y-103700476D02*
X121055533Y-103605238D01*
D11*
X118775000Y-94300000D02*
X120045000Y-94300000D01*
X118775000Y-94940000D02*
X118775000Y-94300000D01*
X118775000Y-99380000D02*
X120045000Y-99380000D01*
X118775000Y-100020000D02*
X118775000Y-99380000D01*
X118775000Y-104460000D02*
X120045000Y-104460000D01*
X118775000Y-105100000D02*
X118775000Y-104460000D01*
X118775000Y-109540000D02*
X120045000Y-109540000D01*
X118775000Y-110180000D02*
X118775000Y-109540000D01*
X120045000Y-94300000D02*
X120045000Y-113670000D01*
X120045000Y-94940000D02*
X118775000Y-94940000D01*
X120045000Y-100020000D02*
X118775000Y-100020000D01*
X120045000Y-105100000D02*
X118775000Y-105100000D01*
X120045000Y-110180000D02*
X118775000Y-110180000D01*
X120995000Y-93350000D02*
X120045000Y-94300000D01*
X120995000Y-93350000D02*
X122585000Y-93350000D01*
X122585000Y-97480000D02*
X123855000Y-97480000D01*
X122585000Y-102560000D02*
X123855000Y-102560000D01*
X122585000Y-107640000D02*
X123855000Y-107640000D01*
X122585000Y-112720000D02*
X123855000Y-112720000D01*
X122585000Y-113670000D02*
X120045000Y-113670000D01*
X122585000Y-113670000D02*
X122585000Y-93350000D01*
X123855000Y-96840000D02*
X122585000Y-96840000D01*
X123855000Y-97480000D02*
X123855000Y-96840000D01*
X123855000Y-101920000D02*
X122585000Y-101920000D01*
X123855000Y-102560000D02*
X123855000Y-101920000D01*
X123855000Y-107000000D02*
X122585000Y-107000000D01*
X123855000Y-107640000D02*
X123855000Y-107000000D01*
X123855000Y-112080000D02*
X122585000Y-112080000D01*
X123855000Y-112720000D02*
X123855000Y-112080000D01*
M02*
